<?xml version="1.0" standalone="no"?>
<!DOCTYPE svg PUBLIC "-//W3C//DTD SVG 20010904//EN"
 "http://www.w3.org/TR/2001/REC-SVG-20010904/DTD/svg10.dtd">
<svg version="1.0" xmlns="http://www.w3.org/2000/svg"
 width="1920.000000pt" height="1080.000000pt" viewBox="0 0 1920.000000 1080.000000"
 preserveAspectRatio="xMidYMid meet">

<g transform="translate(0.000000,1080.000000) scale(0.100000,-0.100000)"
fill="#000000" stroke="none">
<path d="M9640 8694 c-393 -50 -709 -205 -983 -481 -426 -428 -572 -1121 -352
-1667 158 -389 401 -665 750 -851 50 -27 92 -50 94 -51 5 -4 -98 -184 -162
-279 -118 -178 -320 -406 -331 -374 -3 8 -19 69 -35 136 -17 68 -35 131 -40
141 -23 42 -89 90 -140 101 -72 15 -2320 15 -2375 0 -50 -14 -91 -54 -106
-105 -11 -37 -3 -76 118 -569 72 -291 128 -532 126 -535 -3 -3 -155 -7 -337
-8 -282 -3 -335 -6 -349 -19 -13 -12 -15 -20 -7 -34 8 -16 22 -19 87 -19 147
0 144 1 208 -113 349 -626 983 -1134 1824 -1462 451 -176 932 -286 1490 -342
244 -24 796 -24 1040 0 1123 111 2041 476 2731 1083 233 206 420 436 580 714
l66 115 71 3 c58 2 74 6 82 22 7 14 6 23 -6 34 -13 13 -48 16 -217 17 -450 1
-1447 15 -1451 20 -8 8 21 172 43 243 43 138 53 395 18 434 -14 15 -20 49 -27
143 -28 350 -95 639 -195 839 -119 238 -225 293 -618 324 l-147 11 34 52 c20
28 58 93 85 145 49 91 53 95 106 117 69 29 195 128 240 189 19 26 47 81 62
122 26 69 28 87 28 215 0 111 -4 151 -19 195 -55 161 -170 318 -286 391 -17
11 -38 47 -65 114 -200 495 -634 853 -1170 965 -98 20 -379 35 -465 24z m340
-84 c497 -62 953 -381 1164 -815 78 -160 78 -150 4 -153 -37 -2 -86 -12 -122
-27 -33 -13 -61 -23 -62 -22 -1 1 -13 25 -27 52 -74 147 -217 328 -353 447
-368 322 -855 468 -1324 397 -36 -5 -74 -12 -85 -15 -13 -4 -17 -3 -10 4 16
16 193 78 290 101 166 40 358 51 525 31z m-342 -190 c419 -44 800 -248 1064
-568 65 -79 152 -212 182 -280 l20 -43 -31 -30 -30 -31 -37 78 c-120 252 -374
507 -638 640 -231 116 -495 175 -723 160 -358 -23 -628 -133 -839 -343 -90
-88 -90 -83 0 32 83 107 208 227 269 257 116 59 314 111 486 127 120 12 172
12 277 1z m58 -309 c84 -21 134 -40 134 -51 0 -3 -53 -16 -117 -29 -347 -67
-687 -229 -882 -419 -181 -177 -235 -325 -234 -642 1 -186 22 -350 62 -467 11
-32 18 -59 17 -61 -2 -1 -39 35 -83 81 -150 156 -213 314 -214 538 -1 233 79
510 199 685 172 254 512 401 897 389 93 -3 167 -11 221 -24z m767 -524 c78
-33 141 -120 153 -212 13 -87 -30 -183 -100 -226 -43 -26 -127 -25 -183 2
-167 81 -179 363 -18 435 39 17 107 18 148 1z m802 -46 l30 -13 -55 -14 c-138
-36 -233 -160 -267 -347 -27 -154 5 -344 78 -459 37 -57 118 -135 160 -152
l31 -13 -26 -7 c-68 -17 -169 26 -246 104 -93 94 -148 232 -157 395 -13 244
88 441 262 512 36 15 148 11 190 -6z m133 -138 c98 -60 160 -194 169 -363 8
-151 -28 -272 -106 -353 -48 -51 -80 -67 -135 -67 -61 0 -89 12 -145 65 -141
132 -178 411 -80 605 69 139 184 183 297 113z m-793 -389 c69 -74 16 -189 -73
-158 -60 21 -88 118 -48 163 28 31 90 29 121 -5z m316 -501 c-54 -152 -157
-316 -279 -444 -256 -270 -616 -428 -1012 -446 -143 -6 -213 8 -395 79 -126
50 -158 72 -61 43 165 -50 452 -64 641 -30 483 85 880 405 1035 833 l23 63 31
-30 c29 -30 30 -32 17 -68z m200 -58 c21 -4 39 -10 39 -14 0 -3 -21 -42 -47
-86 -210 -361 -515 -594 -943 -719 -73 -22 -53 -7 45 33 341 140 649 451 777
788 l16 42 37 -19 c20 -10 54 -21 76 -25z m277 -397 c50 -6 92 -15 92 -18 0
-4 -23 -10 -50 -13 -42 -5 -197 -53 -260 -81 -12 -5 -24 10 -48 59 -17 36 -32
68 -32 72 0 8 176 -3 298 -19z m-338 -98 c22 -44 46 -96 54 -117 167 -444 220
-693 220 -1038 1 -205 -7 -265 -51 -399 l-16 -50 -23 114 c-13 63 -35 147 -50
188 -52 144 -166 284 -287 352 -31 18 -57 34 -57 36 0 3 9 32 20 65 13 39 20
80 18 112 l-3 50 -57 -104 c-94 -172 -181 -235 -375 -273 -57 -12 -102 -14
-168 -8 -89 7 -90 7 -87 33 2 14 -6 36 -17 50 -17 21 -28 24 -84 24 -75 0
-107 -20 -107 -67 l0 -28 -77 5 c-156 11 -460 25 -544 25 -75 0 -94 -4 -140
-28 -37 -19 -64 -43 -86 -76 -18 -27 -33 -44 -33 -38 0 10 86 504 121 695 17
93 25 117 36 113 58 -22 200 -57 290 -72 146 -23 436 -15 571 15 311 69 598
227 816 450 33 33 63 58 68 55 5 -3 26 -41 48 -84z m671 -75 c59 -86 99 -180
144 -334 46 -160 88 -423 97 -601 l2 -55 -169 -12 c-210 -16 -231 -19 -256
-44 -10 -10 -21 -19 -23 -19 -2 0 -6 19 -10 43 -14 88 -98 412 -146 560 -39
121 -118 328 -166 433 -3 7 25 23 71 39 132 48 212 64 314 62 l95 -2 47 -70z
m-2626 -651 c-20 -115 -50 -278 -66 -362 -16 -85 -29 -156 -29 -158 0 -2 -10
-4 -23 -4 -36 0 -113 -54 -144 -101 -25 -38 -28 -52 -28 -123 0 -72 3 -86 27
-121 15 -22 41 -49 58 -60 26 -17 29 -24 24 -50 -12 -62 -15 -66 -42 -63 -26
3 -28 9 -112 344 l-85 341 99 104 c107 113 251 299 313 402 21 36 39 64 41 62
2 -1 -13 -97 -33 -211z m-645 41 c39 -20 43 -30 80 -176 30 -117 32 -131 25
-244 -26 -479 -187 -802 -504 -1013 -203 -136 -430 -220 -786 -293 -99 -21
-145 -23 -467 -26 -197 -2 -358 -2 -358 1 0 2 -93 379 -206 838 -113 458 -206
845 -207 860 0 15 8 37 18 48 18 20 28 20 1197 20 1032 0 1183 -2 1208 -15z
m2389 -324 c195 -100 311 -321 327 -627 l7 -121 -55 -54 c-146 -142 -331 -205
-633 -216 -351 -12 -520 35 -569 158 -10 24 -21 99 -28 179 -19 236 12 384 94
454 49 43 89 52 268 66 241 18 386 60 490 143 25 20 49 36 53 36 4 1 25 -8 46
-18z m600 -171 c12 -63 21 -117 21 -121 0 -4 -11 -2 -25 4 -24 12 -25 14 -25
126 0 63 2 112 4 110 2 -2 14 -56 25 -119z m-1998 66 c2 -2 -1 -105 -7 -228
-12 -254 -22 -221 89 -300 66 -47 67 -49 67 -93 0 -43 -11 -58 -25 -35 -5 7
-75 8 -216 4 l-209 -7 0 29 c-1 97 23 475 31 506 12 46 53 96 94 114 27 12
166 20 176 10z m457 -22 l62 -6 -41 -40 c-41 -40 -99 -147 -99 -182 0 -11 -16
-52 -36 -93 -33 -66 -36 -79 -32 -141 3 -54 9 -78 31 -110 43 -66 39 -72 -53
-72 l-80 0 0 63 0 63 -81 55 -80 54 6 195 c4 107 9 203 12 214 5 18 14 18 167
12 88 -3 189 -9 224 -12z m2110 -79 c8 -150 -36 -355 -89 -411 -27 -28 -97
-57 -130 -52 -33 4 -85 78 -109 154 -14 48 -20 94 -20 167 0 123 -17 121 -31
-3 -11 -99 1 -214 29 -270 22 -45 17 -50 -22 -19 -40 32 -55 69 -68 172 -12
100 0 269 22 291 13 13 234 34 340 32 l75 -1 3 -60z m-2930 -110 c5 -4 -18
-287 -24 -296 -9 -15 -56 -10 -100 12 -58 28 -84 71 -84 143 0 50 4 60 36 96
41 45 82 61 134 54 19 -3 36 -7 38 -9z m2355 -82 c8 -10 23 -42 32 -71 15 -43
15 -60 6 -98 -17 -68 -37 -91 -97 -114 -30 -11 -59 -20 -64 -20 -5 0 2 24 15
53 26 56 65 197 65 232 0 38 18 45 43 18z m-2373 -328 c0 -33 -2 -35 -35 -35
-36 0 -40 6 -29 48 5 16 14 22 35 22 26 0 29 -3 29 -35z m2452 -47 c-2 -5 -35
-8 -75 -8 -74 0 -79 9 -16 29 20 6 47 23 60 37 l24 26 5 -39 c3 -21 4 -41 2
-45z m136 32 c81 -31 168 -26 263 14 13 6 15 1 11 -24 l-4 -30 -158 0 -158 0
-4 30 c-3 17 -4 30 -4 30 1 0 25 -9 54 -20z m-2218 -97 c-14 -9 -126 -91 -249
-181 -122 -90 -224 -162 -226 -160 -1 2 -7 22 -12 45 l-10 41 133 98 c74 54
134 101 134 106 0 4 -8 1 -17 -6 -52 -42 -254 -188 -257 -185 -2 2 -13 47 -25
99 -12 52 -26 110 -30 128 l-9 32 296 0 c282 0 295 -1 272 -17z m39 -75 c-19
-16 -65 -53 -104 -82 -38 -29 -140 -109 -227 -178 -147 -118 -156 -124 -161
-101 -5 27 -31 6 383 310 74 55 137 95 139 90 2 -6 -11 -23 -30 -39z m446 -88
c20 -16 45 -32 55 -35 12 -4 23 -26 34 -69 8 -35 24 -84 35 -110 17 -37 25
-46 45 -46 29 0 44 23 72 113 18 58 18 58 52 52 56 -10 362 -7 451 5 83 11
221 47 288 75 45 19 187 21 180 3 -2 -7 -35 -119 -72 -249 -37 -130 -70 -241
-74 -248 -6 -9 -38 -9 -137 -2 -551 44 -923 53 -1354 32 -112 -6 -205 -9 -206
-8 -6 6 569 517 580 517 7 0 30 -13 51 -30z m2265 -10 l145 0 155 -207 c85
-113 168 -224 183 -245 l29 -38 -806 0 c-533 0 -806 4 -806 10 0 13 131 472
138 484 3 5 171 7 411 3 223 -4 471 -7 551 -7z m-5916 -41 c8 -43 8 -59 -3
-59 -5 0 -11 12 -13 27 -2 22 -9 29 -33 33 l-30 6 30 11 c42 16 42 16 49 -18z
m6678 -26 c6 -7 22 -13 37 -14 24 0 23 -2 -9 -13 -26 -10 -36 -20 -41 -42 l-5
-29 -8 32 c-6 25 -14 33 -39 39 l-32 8 30 5 c23 5 32 14 40 41 9 32 10 33 13
10 2 -14 9 -31 14 -37z m-2302 -503 c168 -11 326 -23 352 -26 38 -5 49 -3 54
10 5 14 39 16 283 16 l277 0 74 -97 c41 -53 77 -101 78 -105 2 -4 -379 -8
-847 -8 -546 0 -851 3 -851 10 0 9 37 105 75 193 l16 38 92 -6 c51 -3 229 -15
397 -25z m-1898 -107 c6 -7 21 -13 34 -13 13 0 24 -4 24 -10 0 -5 -11 -10 -24
-10 -28 0 -42 -15 -49 -50 l-4 -25 -2 26 c-1 32 -18 49 -48 49 -13 0 -23 5
-23 10 0 6 10 10 23 10 30 0 47 17 48 50 l2 25 4 -25 c3 -14 10 -31 15 -37z
m-850 25 c2 -16 11 -24 28 -27 l25 -4 -25 -6 c-16 -4 -26 -15 -28 -29 -2 -12
-7 -22 -12 -22 -5 0 -10 10 -12 22 -2 14 -12 25 -28 29 l-25 6 25 4 c17 3 26
11 28 27 2 12 7 22 12 22 5 0 10 -10 12 -22z m4321 -145 c5 -7 21 -13 36 -14
24 0 23 -1 -8 -12 -25 -9 -38 -21 -47 -47 -11 -31 -13 -32 -13 -10 -2 36 -11
47 -51 58 -32 9 -33 10 -8 11 34 1 58 25 59 59 l1 27 10 -30 c6 -16 15 -36 21
-42z m-5025 -65 l27 -11 -25 -6 c-15 -4 -27 -16 -30 -31 l-6 -25 -7 28 c-6 20
-13 27 -33 27 -14 0 -23 4 -19 10 3 6 15 10 25 10 13 0 22 10 27 28 7 26 8 26
11 4 2 -14 14 -28 30 -34z m2352 7 c6 -16 18 -25 32 -26 l23 -1 -24 -7 c-12
-3 -29 -20 -36 -36 l-13 -30 -1 27 c-1 21 -7 29 -28 35 l-28 7 25 6 c16 4 26
14 28 28 4 29 10 28 22 -3z m1277 -238 l26 -12 -24 -5 c-14 -4 -26 -15 -29
-30 l-6 -25 -7 28 c-6 21 -13 27 -35 27 l-27 1 33 14 c22 10 32 21 33 37 l2
23 4 -23 c3 -13 16 -28 30 -35z m665 -4 c5 -6 22 -13 36 -16 24 -3 25 -4 7
-11 -41 -16 -50 -24 -56 -52 -5 -22 -7 -24 -8 -7 -2 38 -12 53 -36 53 -13 0
-27 5 -30 10 -3 6 4 10 17 10 31 0 48 17 49 50 l2 25 4 -25 c3 -14 9 -30 15
-37z m-3412 -103 c31 17 37 11 10 -10 -22 -17 -23 -22 -12 -39 19 -32 14 -37
-13 -11 -20 18 -28 21 -37 12 -20 -20 -32 -13 -13 8 12 14 15 27 10 47 l-6 28
21 -23 c16 -17 25 -20 40 -12z m862 -115 c2 -13 14 -22 33 -25 l30 -6 -32 -11
c-22 -8 -33 -18 -33 -32 0 -11 -4 -23 -10 -26 -6 -4 -10 5 -10 20 0 20 -7 29
-32 38 l-33 11 30 6 c24 4 31 11 33 34 4 30 18 25 24 -9z m1098 -46 l25 -6
-27 -11 c-19 -8 -28 -19 -29 -34 l-1 -23 -7 24 c-3 12 -20 29 -36 36 l-30 13
27 1 c21 1 29 7 35 29 l7 27 6 -25 c3 -15 15 -27 30 -31z"/>
<path d="M6148 5199 c-10 -5 -18 -15 -18 -22 0 -7 4 -6 10 3 8 13 155 16 1187
20 l1178 5 -1170 2 c-780 2 -1176 -1 -1187 -8z"/>
<path d="M6171 4964 c0 -11 3 -14 6 -6 3 7 2 16 -1 19 -3 4 -6 -2 -5 -13z"/>
<path d="M6181 4924 c0 -11 3 -14 6 -6 3 7 2 16 -1 19 -3 4 -6 -2 -5 -13z"/>
<path d="M6191 4884 c0 -11 3 -14 6 -6 3 7 2 16 -1 19 -3 4 -6 -2 -5 -13z"/>
<path d="M7650 4860 c-119 -15 -195 -54 -274 -141 -46 -51 -57 -59 -79 -54
-14 4 -52 -1 -84 -10 -49 -14 -69 -28 -128 -88 -39 -40 -77 -87 -85 -106 -12
-30 -12 -35 4 -46 9 -7 43 -16 74 -20 87 -10 101 -15 95 -32 -3 -8 7 -27 22
-43 27 -29 28 -30 11 -49 -10 -11 -16 -28 -14 -38 5 -25 41 -28 62 -4 17 19
18 19 43 -5 14 -13 36 -24 47 -24 19 0 23 -9 34 -71 20 -119 34 -129 106 -80
101 70 160 163 160 258 1 61 1 62 54 112 63 61 106 145 122 243 13 75 6 171
-13 186 -18 14 -95 20 -157 12z m22 -147 c43 -43 78 -84 78 -93 -1 -30 -40
-100 -82 -146 -50 -54 -153 -126 -254 -177 -65 -33 -72 -34 -87 -20 -14 15 -9
23 64 102 81 87 91 107 63 118 -11 4 -43 -21 -103 -81 -87 -86 -87 -87 -100
-63 -11 21 -8 34 34 118 55 109 120 205 167 244 28 24 122 75 138 75 2 0 40
-35 82 -77z"/>
<path d="M7529 4691 c-76 -77 12 -197 108 -147 36 18 58 65 49 102 -19 74
-103 98 -157 45z m99 -33 c7 -7 12 -21 12 -33 0 -12 -5 -26 -12 -33 -7 -7 -21
-12 -33 -12 -12 0 -26 5 -33 12 -13 13 -16 60 -5 71 11 11 58 8 71 -5z"/>
<path d="M6201 4844 c0 -11 3 -14 6 -6 3 7 2 16 -1 19 -3 4 -6 -2 -5 -13z"/>
<path d="M6211 4804 c0 -11 3 -14 6 -6 3 7 2 16 -1 19 -3 4 -6 -2 -5 -13z"/>
<path d="M6221 4764 c0 -11 3 -14 6 -6 3 7 2 16 -1 19 -3 4 -6 -2 -5 -13z"/>
<path d="M6231 4724 c0 -11 3 -14 6 -6 3 7 2 16 -1 19 -3 4 -6 -2 -5 -13z"/>
<path d="M6241 4684 c0 -11 3 -14 6 -6 3 7 2 16 -1 19 -3 4 -6 -2 -5 -13z"/>
<path d="M6251 4644 c0 -11 3 -14 6 -6 3 7 2 16 -1 19 -3 4 -6 -2 -5 -13z"/>
<path d="M6261 4604 c0 -11 3 -14 6 -6 3 7 2 16 -1 19 -3 4 -6 -2 -5 -13z"/>
<path d="M6271 4564 c0 -11 3 -14 6 -6 3 7 2 16 -1 19 -3 4 -6 -2 -5 -13z"/>
<path d="M6281 4524 c0 -11 3 -14 6 -6 3 7 2 16 -1 19 -3 4 -6 -2 -5 -13z"/>
<path d="M6291 4484 c0 -11 3 -14 6 -6 3 7 2 16 -1 19 -3 4 -6 -2 -5 -13z"/>
<path d="M6321 4354 c0 -11 3 -14 6 -6 3 7 2 16 -1 19 -3 4 -6 -2 -5 -13z"/>
<path d="M6331 4314 c0 -11 3 -14 6 -6 3 7 2 16 -1 19 -3 4 -6 -2 -5 -13z"/>
<path d="M6341 4274 c0 -11 3 -14 6 -6 3 7 2 16 -1 19 -3 4 -6 -2 -5 -13z"/>
<path d="M6351 4234 c0 -11 3 -14 6 -6 3 7 2 16 -1 19 -3 4 -6 -2 -5 -13z"/>
<path d="M6361 4194 c0 -11 3 -14 6 -6 3 7 2 16 -1 19 -3 4 -6 -2 -5 -13z"/>
<path d="M6371 4154 c0 -11 3 -14 6 -6 3 7 2 16 -1 19 -3 4 -6 -2 -5 -13z"/>
<path d="M6381 4114 c0 -11 3 -14 6 -6 3 7 2 16 -1 19 -3 4 -6 -2 -5 -13z"/>
<path d="M6391 4074 c0 -11 3 -14 6 -6 3 7 2 16 -1 19 -3 4 -6 -2 -5 -13z"/>
<path d="M6401 4034 c0 -11 3 -14 6 -6 3 7 2 16 -1 19 -3 4 -6 -2 -5 -13z"/>
<path d="M6411 3994 c0 -11 3 -14 6 -6 3 7 2 16 -1 19 -3 4 -6 -2 -5 -13z"/>
<path d="M6421 3954 c0 -11 3 -14 6 -6 3 7 2 16 -1 19 -3 4 -6 -2 -5 -13z"/>
<path d="M6431 3914 c0 -11 3 -14 6 -6 3 7 2 16 -1 19 -3 4 -6 -2 -5 -13z"/>
<path d="M6441 3874 c0 -11 3 -14 6 -6 3 7 2 16 -1 19 -3 4 -6 -2 -5 -13z"/>
<path d="M6451 3834 c0 -11 3 -14 6 -6 3 7 2 16 -1 19 -3 4 -6 -2 -5 -13z"/>
<path d="M6461 3794 c0 -11 3 -14 6 -6 3 7 2 16 -1 19 -3 4 -6 -2 -5 -13z"/>
<path d="M6501 3624 c0 -11 3 -14 6 -6 3 7 2 16 -1 19 -3 4 -6 -2 -5 -13z"/>
<path d="M8973 4073 c43 -2 110 -2 150 0 40 1 5 3 -78 3 -82 0 -115 -2 -72 -3z"/>
<path d="M10205 3694 c17 -2 129 -8 250 -14 121 -6 274 -13 340 -17 188 -9
130 4 -90 21 -160 13 -614 21 -500 10z"/>
<path d="M9810 3600 c85 -5 301 -14 480 -20 179 -6 372 -13 430 -17 58 -3 102
-3 99 1 -12 13 -486 36 -819 40 -266 4 -310 3 -190 -4z"/>
<path d="M11365 3880 c-22 -3 147 -11 375 -18 447 -13 496 -14 489 -8 -12 13
-792 36 -864 26z"/>
<path d="M11265 3800 c4 -6 11 -8 16 -5 14 9 11 15 -7 15 -8 0 -12 -5 -9 -10z"/>
<path d="M11340 3800 c19 -4 159 -10 310 -14 151 -3 354 -8 450 -11 144 -3
159 -2 85 5 -220 22 -928 39 -845 20z"/>
<path d="M11305 3701 c-10 -4 131 -11 315 -14 184 -4 430 -9 545 -11 167 -4
189 -3 105 4 -282 23 -923 37 -965 21z"/>
<path d="M11440 3570 c-154 -4 -80 -7 345 -13 297 -4 560 -10 585 -13 30 -3
40 -2 30 4 -15 10 -604 34 -710 30 -30 -1 -143 -5 -250 -8z"/>
<path d="M10510 3280 c-152 -4 -79 -7 335 -13 292 -4 557 -9 590 -12 46 -4 55
-3 36 5 -13 6 -152 12 -325 15 -165 3 -332 7 -371 8 -38 1 -158 0 -265 -3z"/>
</g>
</svg>
